#!OML:ASF H:\Terrain\Patient Classification 1\Animal1\Tuesday\Animal1.ASF
:FULLY-SPECIFIED
:DEGREES
2079
root 7.2192 16.4818 -5.3728 -348.032 -2.04505 360.978
lowerback -0.387877 -1.2574 4.2717
upperback -5.78305 -1.48362 1.73746
thorax -5.85084 -0.904376 -0.511311
lowerneck -2.31938 2.7665 -5.24317
upperneck 14.5282 3.24939 6.50921
head 4.51084 1.68927 3.02047
rclavicle -1.35981e-014 2.54444e-014
rhumerus -9.3979 4.55856 -2.58764
rradius 22.549
rwrist -12.4742
rhand -6.24239 6.63619
rfingers 7.12502
rthumb 19.5993 -22.3959
lclavicle -1.35981e-014 2.54444e-014
lhumerus -15.805 13.9161 11.0989
lradius 22.9484
lwrist -37.7044
lhand 13.645 44.1603
lfingers 7.12502
lthumb 38.5747 -650.199
rfemur -25.8634 19.5154 19.4087
rtibia 31.8813
rfoot -11.4324 -29.467
rtoes 4.61972
lfemur -24.4316 -38.5287 -5.29116
ltibia 24.9064
lfoot -16.4659 29.3909
ltoes -15.051
2080
root 7.23007 16.4868 -5.36489 -348.069 -2.04238 361.077
lowerback -0.452089 -1.33717 4.10024
upperback -5.6975 -1.60285 1.72459
thorax -5.72218 -0.952829 -0.427244
lowerneck -2.65147 2.76211 -5.23508
upperneck 14.4123 3.25198 6.58218
head 4.52989 1.69975 3.0457
rclavicle -1.3623e-014 7.95139e-015
rhumerus -9.49244 3.45268 -3.53752
rradius 22.432
rwrist -12.124
rhand -7.14957 7.55785
rfingers 7.12502
rthumb 18.727 -21.5607
lclavicle -1.3623e-014 7.95139e-015
lhumerus -16.2372 14.2078 11.6633
lradius 23.4895
lwrist -36.8703
lhand 15.1796 45.4757
lfingers 7.12502
lthumb 40.0206 -649.304
rfemur -25.7999 19.7736 19.2331
rtibia 31.9081
rfoot -11.5733 -29.7248
rtoes 4.1934
lfemur -24.2624 -38.7418 -5.46193
ltibia 24.678
lfoot -17.0229 29.4705
ltoes -13.7207
2081
root 7.24153 16.4898 -5.35672 -348.141 -2.04514 361.219
lowerback -0.469534 -1.39673 3.85695
upperback -5.63701 -1.69214 1.73099
thorax -5.64207 -0.98357 -0.283048
lowerneck -2.9901 2.7683 -5.19519
upperneck 14.4706 3.2758 6.54043
head 4.60526 1.71582 3.0348
rclavicle -2.20651e-014 -5.56597e-015
rhumerus -9.69901 2.86275 -4.38519
rradius 22.4816
rwrist -12.4383
rhand -7.47332 7.62982
rfingers 7.12502
rthumb 18.4156 -21.5185
lclavicle -2.20651e-014 -5.56597e-015
lhumerus -16.7231 14.821 12.2952
lradius 23.907
lwrist -36.5244
lhand 15.5573 45.7332
lfingers 7.12502
lthumb 40.376 -649.155
rfemur -25.6703 19.8512 19.048
rtibia 31.8827
rfoot -11.58 -29.9766
rtoes 2.20816
lfemur -24.1204 -39.0928 -5.68082
ltibia 24.5627
lfoot -14.0861 30.4826
ltoes -20.6298
2082
root 7.25209 16.4907 -5.35075 -348.184 -2.10712 361.296
lowerback -0.459164 -1.39931 3.70642
upperback -5.65957 -1.6986 1.72964
thorax -5.66648 -0.980104 -0.199575
lowerneck -2.92261 2.74678 -5.15376
upperneck 14.3166 3.2491 6.51351
head 4.54986 1.70243 3.01401
rclavicle -1.15233e-014 -2.3059e-014
rhumerus -10.0445 2.80217 -5.23646
rradius 22.6113
rwrist -13.1199
rhand -7.71697 8.0094
rfingers 7.12502
rthumb 18.1812 -21.1609
lclavicle -1.15233e-014 -2.3059e-014
lhumerus -17.2516 15.4545 12.9664
lradius 24.2805
lwrist -36.5348
lhand 15.5471 44.8322
lfingers 7.12502
lthumb 40.3664 -650.053
rfemur -25.5458 19.9178 18.9353
rtibia 31.7758
rfoot -11.3316 -30.0801
rtoes 1.48507
lfemur -24.0642 -39.3507 -5.82497
ltibia 24.5896
lfoot -17.097 29.9712
ltoes -12.5336
2083
root 7.26275 16.4902 -5.34414 -348.236 -2.1962 361.038
lowerback -0.381844 -1.37591 3.88084
upperback -5.72893 -1.65287 1.79673
thorax -5.78744 -0.966133 -0.22515
lowerneck -2.64452 2.67624 -5.24793
upperneck 13.9533 3.13695 6.70012
head 4.39312 1.64908 3.07036
rclavicle 4.02539e-015 -4.77083e-015
rhumerus -10.4442 2.04304 -6.23604
rradius 22.7124
rwrist -12.9823
rhand -8.13293 8.69439
rfingers 7.12502
rthumb 17.7809 -20.5127
lclavicle 4.02539e-015 -4.77083e-015
lhumerus -17.8923 15.5667 13.704
lradius 24.8342
lwrist -36.0807
lhand 15.9181 43.7911
lfingers 7.12502
lthumb 40.7151 -651.203
rfemur -25.3985 20.191 19.1681
rtibia 31.6437
rfoot -11.203 -30.1096
rtoes 2.68755
lfemur -23.9798 -39.5702 -5.62515
ltibia 24.673
lfoot -17.4109 30.2438
ltoes -12.1845
2084
root 7.27457 16.4893 -5.33604 -348.225 -2.31081 360.803
lowerback -0.447041 -1.33231 4.0115
upperback -5.75764 -1.59105 1.84808
thorax -5.78169 -0.940753 -0.248655
lowerneck -2.70478 2.59322 -5.40213
upperneck 13.8077 3.00928 6.97517
head 4.35825 1.59464 3.17444
rclavicle -9.49818e-015 -1.27222e-014
rhumerus -10.9149 1.01709 -7.32453
rradius 22.8509
rwrist -12.8633
rhand -8.56637 8.84051
rfingers 7.12502
rthumb 17.3638 -20.4039
lclavicle -9.49818e-015 -1.27222e-014
lhumerus -18.4178 14.6521 14.6511
lradius 25.4045
lwrist -34.5383
lhand 16.1005 43.4922
lfingers 7.12502
lthumb 40.8865 -651.555
rfemur -25.3456 20.4526 19.3238
rtibia 31.514
rfoot -11.2627 -30.1309
rtoes 3.49311
lfemur -23.9717 -39.7796 -5.42116
ltibia 24.7576
lfoot -18.2447 30.4871
ltoes -10.6018
2085
root 7.28936 16.4897 -5.32574 -348.216 -2.40566 360.834
lowerback -0.646555 -1.31042 3.97205
upperback -5.7377 -1.57716 1.79702
thorax -5.64561 -0.931622 -0.286445
lowerneck -2.87384 2.54744 -5.36621
upperneck 13.8192 2.93867 7.07764
head 4.39313 1.57 3.20087
rclavicle 2.46555e-014 4.77083e-015
rhumerus -11.3504 0.659547 -8.49918
rradius 22.9352
rwrist -13.2894
rhand -9.33654 8.52455
rfingers 7.12502
rthumb 16.6225 -20.7836
lclavicle 2.46555e-014 4.77083e-015
lhumerus -18.8133 14.1519 15.6276
lradius 25.7815
lwrist -33.358
lhand 16.0906 43.6493
lfingers 7.12502
lthumb 40.8772 -651.395
rfemur -25.2633 20.395 19.2406
rtibia 31.3942
rfoot -11.0947 -29.9107
rtoes 3.36514
lfemur -23.9369 -39.868 -5.58208
ltibia 24.8053
lfoot -18.1331 30.8471
ltoes -10.8538
2086
root 7.30579 16.4949 -5.31123 -348.211 -2.50496 360.942
lowerback -0.816116 -1.28727 3.90091
upperback -5.77855 -1.56048 1.69855
thorax -5.59138 -0.922589 -0.353437
lowerneck -2.84181 2.43748 -5.28961
upperneck 13.7252 2.78214 7.107
head 4.36987 1.49771 3.18885
rclavicle 1.19783e-014 -2.06736e-014
rhumerus -11.83 0.293365 -9.71103
rradius 22.9043
rwrist -13.3646
rhand -10.1723 8.68332
rfingers 7.12502
rthumb 15.8177 -20.6905
lclavicle 1.19783e-014 -2.06736e-014
lhumerus -19.3458 14.0547 16.5881
lradius 26.2962
lwrist -32.7524
lhand 15.9879 43.5072
lfingers 7.12502
lthumb 40.7807 -651.507
rfemur -25.1501 20.4049 19.0602
rtibia 31.2769
rfoot -11.0034 -29.7578
rtoes 3.41407
lfemur -23.8491 -40.1966 -5.80317
ltibia 24.817
lfoot -18.6399 31.108
ltoes -9.52724
2087
root 7.32059 16.5026 -5.2971 -348.128 -2.66925 360.993
lowerback -0.979584 -1.1934 3.82748
upperback -5.83861 -1.44697 1.61911
thorax -5.5568 -0.86519 -0.402727
lowerneck -3.05938 2.18722 -5.26456
upperneck 13.7647 2.44513 7.13244
head 4.44029 1.33818 3.18384
rclavicle -7.9444e-015 -1.51076e-014
rhumerus -12.4122 -0.757705 -10.8129
rradius 22.7885
rwrist -12.5817
rhand -10.6264 9.4529
rfingers 7.12502
rthumb 15.3804 -19.955
lclavicle -7.9444e-015 -1.51076e-014
lhumerus -19.8343 13.406 17.7777
lradius 26.9647
lwrist -31.7284
lhand 15.6947 43.4125
lfingers 7.12502
lthumb 40.5051 -651.516
rfemur -25.1575 20.7292 18.8503
rtibia 31.1514
rfoot -11.2272 -29.8685
rtoes 3.89958
lfemur -23.8318 -40.5156 -5.87956
ltibia 24.8162
lfoot -19.2103 31.3516
ltoes -8.30941
2088
root 7.33384 16.5046 -5.28539 -348.139 -2.77111 360.78
lowerback -0.969539 -1.12471 3.99957
upperback -5.8855 -1.34761 1.65045
thorax -5.61338 -0.824567 -0.468846
lowerneck -3.27965 1.98429 -5.3022
upperneck 13.8391 2.16931 7.2076
head 4.51628 1.20869 3.20704
rclavicle 5.43552e-016 1.90833e-014
rhumerus -12.9071 -1.68331 -11.9179
rradius 22.7026
rwrist -11.5245
rhand -10.5225 9.91001
rfingers 7.12502
rthumb 15.4805 -19.4902
lclavicle 5.43552e-016 1.90833e-014
lhumerus -20.2849 13.0135 18.96
lradius 27.4038
lwrist -31.067
lhand 15.5168 43.2148
lfingers 7.12502
lthumb 40.3379 -651.662
rfemur -25.0115 21.11 18.9961
rtibia 30.9968
rfoot -11.2173 -30.2259
rtoes 3.77901
lfemur -23.7092 -40.5334 -5.80719
ltibia 24.8332
lfoot -17.4629 32.0751
ltoes -12.6784
